<svg xmlns="http://www.w3.org/2000/svg" version="1.1" xmlns:xlink="http://www.w3.org/1999/xlink" xmlns:svgjs="http://svgjs.dev/svgjs" width="100" height="100"><svg width="100" height="100" viewBox="0 0 100 100" fill="none" xmlns="http://www.w3.org/2000/svg">
<g clip-path="url(#clip0_459_522)">
<rect width="100" height="100" fill="#FFFEF7"></rect>
<path d="M30.036 58.052C31.408 58.668 32.416 59.032 33.2 59.032C34.124 59.032 34.488 58.752 34.908 58.304C36.448 56.568 37.12 52.312 37.12 49.708C37.12 48.476 36.644 47.748 35.468 47.748C33.928 47.748 30.344 49.316 28.3 50.268C27.516 50.632 26.928 50.94 26.116 50.94C25.248 50.94 23.82 49.316 23.624 48.028C23.484 47.104 23.792 46.516 24.072 45.928L24.38 45.844C24.996 46.824 25.416 47.272 26.088 47.272C27.32 47.272 29.952 46.628 32.948 46.152C33.928 45.984 35.384 45.788 36.308 45.788C38.632 45.788 40.228 47.244 40.228 51.192C40.228 54.86 39.444 58.948 37.176 61.3C36.252 62.252 34.824 62.896 33.396 62.896C32.22 62.896 31.688 62.42 31.352 60.74C31.24 60.124 31.072 59.9 29.812 58.388L30.036 58.052ZM29.532 40.776V40.44C30.176 40.048 31.044 39.544 32.444 39.544C33.816 39.544 36.672 40.748 36.672 41.868C36.672 42.736 35.748 43.212 35.3 44.276C34.628 45.9 32.64 50.744 31.576 53.208C30.428 55.868 28.496 59.928 27.572 61.608C26.872 62.868 26.34 63.176 25.416 63.176C24.576 63.176 23.764 62.364 23.764 61.076C23.764 60.068 23.904 59.704 24.492 58.976C25.78 57.408 27.46 54.86 28.72 52.144C30.82 47.636 31.996 43.576 31.996 42.456C31.996 42.064 31.856 41.756 31.576 41.56C31.1 41.224 30.344 40.972 29.532 40.776ZM40.984 45.984L41.068 45.564C42.664 45.536 44.82 46.04 46.36 47.412C48.208 49.036 48.908 51.08 48.908 53.264C48.908 55.224 48.152 56.568 46.724 56.596C45.66 56.624 45.548 55.644 44.568 55.196C43.952 54.916 42.636 54.58 41.656 54.496L41.572 54.076C42.86 53.712 43.364 53.544 43.924 53.292C44.568 53.012 44.904 52.676 44.904 51.892C44.904 51.052 44.708 49.68 44.008 48.476C43.308 47.272 42.328 46.404 40.984 45.984ZM67.724 45.004L67.696 44.584C69.404 43.912 71.14 43.94 72.288 44.248C74.304 44.78 75.648 46.124 75.648 47.916C75.648 48.98 75.312 49.764 74.248 49.764C72.904 49.764 72.036 48.7 70.3 48.7C69.572 48.7 68.76 48.98 68.452 49.568C68.144 50.156 68.312 51.164 68.508 52.284C68.788 53.852 69.684 57.184 69.684 59.984C69.684 62.56 67.64 63.876 64.252 63.876C61.06 63.876 59.1 62.224 59.1 59.928C59.1 57.604 61.312 55.252 65.596 55.252C68.732 55.252 70.776 56.064 72.316 56.82C74.304 57.8 75.872 59.144 75.872 60.684C75.872 62.056 75.032 62.56 74.276 62.56C73.268 62.56 72.848 61.636 71.504 60.488C69.964 59.144 67.528 57.408 63.636 57.408C61.48 57.408 60.584 58.444 60.584 59.284C60.584 60.18 61.256 60.824 63.16 60.824C64.896 60.824 66.268 60.152 66.268 58.556C66.296 57.268 66.212 54.916 66.212 53.292C66.212 51.444 66.464 50.1 67.248 49.092C68.424 47.608 69.908 47.02 70.748 46.544C70.664 46.348 70.524 46.152 70.356 45.984C69.824 45.508 68.9 45.144 67.724 45.004ZM52.156 42.932C53.332 43.772 54.34 44.5 56.076 44.5C57.476 44.5 59.464 44.052 60.416 43.8C63.552 42.96 64.476 42.204 64.896 42.204C65.568 42.204 66.548 42.68 66.548 43.8C66.548 44.5 66.296 44.836 65.736 45.228C63.832 46.516 59.044 47.44 56.076 47.44C53.612 47.44 52.492 46.768 51.792 43.1L52.156 42.932ZM57.14 40.048V39.656C57.7 39.348 58.848 38.984 59.744 38.984C61.032 38.984 62.04 39.376 62.656 39.88C63.384 40.44 62.768 41.812 61.76 44.612C61.2 46.152 59.352 53.012 56.608 57.548C55.74 58.92 55.096 59.816 54.172 59.816C52.996 59.816 52.324 58.696 52.324 57.52C52.324 56.708 52.52 56.148 53.108 55.448C55.18 53.012 57 50.184 58.232 46.348C58.792 44.64 59.072 43.38 59.072 42.232C59.072 41.644 58.792 41.224 58.316 40.804C57.84 40.384 57.364 40.16 57.14 40.048Z" fill="black"></path>
</g>
<defs>
<clipPath id="SvgjsClipPath1008">
<rect width="100" height="100" rx="10" fill="white"></rect>
</clipPath>
</defs>
</svg><style>@media (prefers-color-scheme: light) { :root { filter: none; } }
@media (prefers-color-scheme: dark) { :root { filter: none; } }
</style></svg>